<svg xmlns="http://www.w3.org/2000/svg" width="900" height="700" viewBox="0 0 900 700"><rect width="900" height="700" fill="#f8fafc"/><text x="50" y="45" font-family="sans-serif" font-size="26" font-weight="700">OVI-01 Vocabulary Status Map</text><text x="50" y="70" font-family="sans-serif" font-size="14">Documentary placement only — recurrence is not validation.</text><line x1="80" y1="650" x2="720" y2="650" stroke="#334155"/><text x="70" y="680" font-family="sans-serif" font-size="13">TOKEN / EXPRESSION</text><text x="665" y="680" font-family="sans-serif" font-size="13">FORMAL</text><circle cx="705" cy="100" r="4" fill="#2563eb"><title>REFLECT — LEVEL_5</title></circle><circle cx="705" cy="130" r="4" fill="#2563eb"><title>ROTATE — LEVEL_5</title></circle><circle cx="705" cy="160" r="4" fill="#2563eb"><title>BRANCH — LEVEL_5</title></circle><circle cx="705" cy="190" r="4" fill="#2563eb"><title>TRANSLATE — LEVEL_5</title></circle><circle cx="705" cy="220" r="4" fill="#2563eb"><title>REPEAT — LEVEL_5</title></circle><circle cx="705" cy="250" r="4" fill="#2563eb"><title>SCALE — LEVEL_5</title></circle><circle cx="705" cy="280" r="4" fill="#2563eb"><title>CONVERGE — LEVEL_5</title></circle><circle cx="705" cy="310" r="4" fill="#2563eb"><title>RETURN — LEVEL_5</title></circle><circle cx="705" cy="340" r="4" fill="#2563eb"><title>TRACE — LEVEL_5</title></circle><circle cx="705" cy="370" r="4" fill="#2563eb"><title>BIND — LEVEL_5</title></circle><circle cx="705" cy="400" r="4" fill="#2563eb"><title>TRANSFORM — LEVEL_5</title></circle><circle cx="705" cy="430" r="4" fill="#2563eb"><title>COPY — LEVEL_5</title></circle><circle cx="705" cy="460" r="4" fill="#2563eb"><title>PROJECT — LEVEL_5</title></circle><circle cx="705" cy="490" r="4" fill="#2563eb"><title>PROJECTION — LEVEL_5</title></circle><circle cx="705" cy="520" r="4" fill="#2563eb"><title>GATE — LEVEL_5</title></circle><circle cx="705" cy="550" r="4" fill="#2563eb"><title>FILTER — LEVEL_5</title></circle><circle cx="705" cy="580" r="4" fill="#2563eb"><title>CONSTRAINT — LEVEL_5</title></circle><circle cx="705" cy="610" r="4" fill="#2563eb"><title>INVERSE — LEVEL_5</title></circle><circle cx="705" cy="100" r="4" fill="#2563eb"><title>NORMALIZE — LEVEL_5</title></circle><circle cx="705" cy="130" r="4" fill="#2563eb"><title>CORRECT — LEVEL_5</title></circle><circle cx="705" cy="160" r="4" fill="#2563eb"><title>OBSERVE — LEVEL_5</title></circle><circle cx="330" cy="190" r="4" fill="#f59e0b"><title>DRIFT — LEVEL_2</title></circle><circle cx="580" cy="220" r="4" fill="#2563eb"><title>FLIP — LEVEL_4</title></circle><circle cx="580" cy="250" r="4" fill="#2563eb"><title>FOLD — LEVEL_4</title></circle><circle cx="330" cy="280" r="4" fill="#f59e0b"><title>EXIT — LEVEL_2</title></circle><circle cx="580" cy="310" r="4" fill="#2563eb"><title>TRANSPORT — LEVEL_4</title></circle><circle cx="580" cy="340" r="4" fill="#2563eb"><title>O-FLIP — LEVEL_4</title></circle><circle cx="80" cy="370" r="4" fill="#64748b"><title>ANCHOR — LEVEL_0</title></circle><circle cx="80" cy="400" r="4" fill="#64748b"><title>STATE — LEVEL_0</title></circle><circle cx="80" cy="430" r="4" fill="#64748b"><title>FIELD — LEVEL_0</title></circle><circle cx="80" cy="460" r="4" fill="#64748b"><title>RELATION — LEVEL_0</title></circle><circle cx="80" cy="490" r="4" fill="#64748b"><title>BOUNDARY — LEVEL_0</title></circle><circle cx="80" cy="520" r="4" fill="#64748b"><title>SEAM — LEVEL_0</title></circle><circle cx="80" cy="550" r="4" fill="#64748b"><title>THRESHOLD — LEVEL_0</title></circle><circle cx="80" cy="580" r="4" fill="#64748b"><title>LAYER — LEVEL_0</title></circle><circle cx="80" cy="610" r="4" fill="#64748b"><title>SHELL — LEVEL_0</title></circle><circle cx="80" cy="100" r="4" fill="#64748b"><title>CENTER — LEVEL_0</title></circle><circle cx="80" cy="130" r="4" fill="#64748b"><title>GAP — LEVEL_0</title></circle><circle cx="80" cy="160" r="4" fill="#64748b"><title>RESIDUAL — LEVEL_0</title></circle><circle cx="80" cy="190" r="4" fill="#64748b"><title>CARRIER — LEVEL_0</title></circle><circle cx="80" cy="220" r="4" fill="#64748b"><title>VIEW — LEVEL_0</title></circle><circle cx="80" cy="250" r="4" fill="#64748b"><title>SYSTEM — LEVEL_0</title></circle><circle cx="80" cy="280" r="4" fill="#64748b"><title>GENERATION — LEVEL_0</title></circle><circle cx="80" cy="310" r="4" fill="#64748b"><title>FIXPOINT — LEVEL_0</title></circle><circle cx="80" cy="340" r="4" fill="#64748b"><title>FIBER — LEVEL_0</title></circle><circle cx="80" cy="370" r="4" fill="#64748b"><title>AXIS — LEVEL_0</title></circle><circle cx="80" cy="400" r="4" fill="#64748b"><title>HINGE — LEVEL_0</title></circle><circle cx="80" cy="430" r="4" fill="#64748b"><title>APERTURE — LEVEL_0</title></circle><circle cx="80" cy="460" r="4" fill="#64748b"><title>OBSERVATION — LEVEL_0</title></circle><circle cx="80" cy="490" r="4" fill="#64748b"><title>RECONSTRUCTION SET — LEVEL_0</title></circle><circle cx="80" cy="520" r="4" fill="#64748b"><title>ORIENTATION — LEVEL_0</title></circle><circle cx="80" cy="550" r="4" fill="#64748b"><title>DIRECTION — LEVEL_0</title></circle><circle cx="80" cy="580" r="4" fill="#64748b"><title>MOTION — LEVEL_0</title></circle><circle cx="80" cy="610" r="4" fill="#64748b"><title>HISTORY — LEVEL_0</title></circle><circle cx="80" cy="100" r="4" fill="#64748b"><title>EXECUTION — LEVEL_0</title></circle><circle cx="80" cy="130" r="4" fill="#64748b"><title>DERIVATION — LEVEL_0</title></circle><circle cx="80" cy="160" r="4" fill="#64748b"><title>IDENTITY — LEVEL_0</title></circle><circle cx="80" cy="190" r="4" fill="#64748b"><title>EQUIVALENCE — LEVEL_0</title></circle><circle cx="80" cy="220" r="4" fill="#64748b"><title>SIMILARITY — LEVEL_0</title></circle><circle cx="80" cy="250" r="4" fill="#64748b"><title>PROVENANCE — LEVEL_0</title></circle><circle cx="80" cy="280" r="4" fill="#64748b"><title>LEFT — LEVEL_0</title></circle><circle cx="80" cy="310" r="4" fill="#64748b"><title>RIGHT — LEVEL_0</title></circle><circle cx="80" cy="340" r="4" fill="#64748b"><title>INWARD — LEVEL_0</title></circle><circle cx="80" cy="370" r="4" fill="#64748b"><title>OUTWARD — LEVEL_0</title></circle><circle cx="80" cy="400" r="4" fill="#64748b"><title>CLOCKWISE — LEVEL_0</title></circle><circle cx="80" cy="430" r="4" fill="#64748b"><title>COUNTERCLOCKWISE — LEVEL_0</title></circle><circle cx="80" cy="460" r="4" fill="#64748b"><title>FORWARD — LEVEL_0</title></circle><circle cx="80" cy="490" r="4" fill="#64748b"><title>BACKWARD — LEVEL_0</title></circle><circle cx="80" cy="520" r="4" fill="#64748b"><title>OUTSIDE — LEVEL_0</title></circle><circle cx="80" cy="550" r="4" fill="#64748b"><title>O° — LEVEL_0</title></circle><circle cx="80" cy="580" r="4" fill="#64748b"><title>ZO° — LEVEL_0</title></circle><circle cx="80" cy="610" r="4" fill="#64748b"><title>H- — LEVEL_0</title></circle><circle cx="80" cy="100" r="4" fill="#64748b"><title>}{ — LEVEL_0</title></circle><circle cx="80" cy="130" r="4" fill="#64748b"><title>Θ — LEVEL_0</title></circle><circle cx="80" cy="160" r="4" fill="#64748b"><title>Φ — LEVEL_0</title></circle><circle cx="80" cy="190" r="4" fill="#64748b"><title>HV — LEVEL_0</title></circle><circle cx="80" cy="220" r="4" fill="#64748b"><title>VH — LEVEL_0</title></circle><circle cx="80" cy="250" r="4" fill="#64748b"><title>ZERO — LEVEL_0</title></circle><circle cx="80" cy="280" r="4" fill="#64748b"><title>ONE — LEVEL_0</title></circle><circle cx="80" cy="310" r="4" fill="#64748b"><title>THETA — LEVEL_0</title></circle><circle cx="80" cy="340" r="4" fill="#64748b"><title>PHI — LEVEL_0</title></circle><circle cx="80" cy="370" r="4" fill="#64748b"><title>DAO — LEVEL_0</title></circle><circle cx="80" cy="400" r="4" fill="#64748b"><title>NO — LEVEL_0</title></circle><circle cx="80" cy="430" r="4" fill="#64748b"><title>NA — LEVEL_0</title></circle><circle cx="80" cy="460" r="4" fill="#64748b"><title>BEL — LEVEL_0</title></circle><circle cx="80" cy="490" r="4" fill="#64748b"><title>NABEL — LEVEL_0</title></circle><circle cx="80" cy="520" r="4" fill="#64748b"><title>CON — LEVEL_0</title></circle><circle cx="80" cy="550" r="4" fill="#64748b"><title>ZE — LEVEL_0</title></circle><circle cx="80" cy="580" r="4" fill="#64748b"><title>ZO — LEVEL_0</title></circle><circle cx="80" cy="610" r="4" fill="#64748b"><title>EI — LEVEL_0</title></circle><circle cx="80" cy="100" r="4" fill="#64748b"><title>EU — LEVEL_0</title></circle><circle cx="80" cy="130" r="4" fill="#64748b"><title>POINT OF HIGHEST MIXING — LEVEL_0</title></circle><circle cx="80" cy="160" r="4" fill="#64748b"><title>WINDOW_GEOMETRY_EFFECT — LEVEL_0</title></circle><circle cx="80" cy="190" r="4" fill="#64748b"><title>Side Portal — LEVEL_0</title></circle><circle cx="80" cy="220" r="4" fill="#64748b"><title>TrippleSix — LEVEL_0</title></circle><circle cx="80" cy="250" r="4" fill="#64748b"><title>BLACK BODY — LEVEL_0</title></circle><circle cx="80" cy="280" r="4" fill="#64748b"><title>BLUETOOTH-LIKE FORM — LEVEL_0</title></circle><circle cx="80" cy="310" r="4" fill="#64748b"><title>BLUETOOTH-LIKE CROSSING — LEVEL_0</title></circle><circle cx="205" cy="340" r="4" fill="#9333ea"><title>water — LEVEL_1</title></circle><circle cx="205" cy="370" r="4" fill="#9333ea"><title>tree — LEVEL_1</title></circle><circle cx="205" cy="400" r="4" fill="#9333ea"><title>beak — LEVEL_1</title></circle><circle cx="205" cy="430" r="4" fill="#9333ea"><title>bridge — LEVEL_1</title></circle><circle cx="205" cy="460" r="4" fill="#9333ea"><title>mirror — LEVEL_1</title></circle><circle cx="205" cy="490" r="4" fill="#9333ea"><title>stream — LEVEL_1</title></circle><circle cx="205" cy="520" r="4" fill="#9333ea"><title>island — LEVEL_1</title></circle><circle cx="205" cy="550" r="4" fill="#9333ea"><title>flow — LEVEL_1</title></circle><circle cx="205" cy="580" r="4" fill="#9333ea"><title>Scarab — LEVEL_1</title></circle><circle cx="205" cy="610" r="4" fill="#9333ea"><title>Cicada — LEVEL_1</title></circle><circle cx="205" cy="100" r="4" fill="#9333ea"><title>Janus — LEVEL_1</title></circle><circle cx="205" cy="130" r="4" fill="#9333ea"><title>Elevator — LEVEL_1</title></circle><circle cx="205" cy="160" r="4" fill="#9333ea"><title>resonance — LEVEL_1</title></circle><circle cx="205" cy="190" r="4" fill="#9333ea"><title>golden ratio — LEVEL_1</title></circle><circle cx="205" cy="220" r="4" fill="#9333ea"><title>Möbius — LEVEL_1</title></circle><g font-family="sans-serif" font-size="12"><circle cx="760" cy="110" r="5" fill="#2563eb"/><text x="775" y="114">tested/formal</text><circle cx="760" cy="135" r="5" fill="#f59e0b"/><text x="775" y="139">declared/operator-like</text><circle cx="760" cy="160" r="5" fill="#9333ea"/><text x="775" y="164">expression</text><circle cx="760" cy="185" r="5" fill="#64748b"/><text x="775" y="189">underdefined</text></g></svg>